HIERARCHY
ROOT Hips
{
	OFFSET -3.958830 18.904000 13.208200
	CHANNELS 6 Xposition Yposition Zposition Zrotation Yrotation Xrotation 
	JOINT LHipJoint
	{
		OFFSET 0.000000 0.000000 0.000000
		CHANNELS 3 Zrotation Yrotation Xrotation
		JOINT LeftUpLeg
		{
			OFFSET 1.800000 -1.400000 0.085000
			CHANNELS 3 Zrotation Yrotation Xrotation
			JOINT LeftLeg
			{
				OFFSET 2.215000 -6.000000 0.000000
				CHANNELS 3 Zrotation Yrotation Xrotation
				JOINT LeftFoot
				{
					OFFSET 2.500000 -6.900000 0.000000
					CHANNELS 3 Zrotation Yrotation Xrotation
					JOINT LeftToeBase
					{
						OFFSET 0.200000 -0.500000 1.950000
						CHANNELS 3 Zrotation Yrotation Xrotation
						End Site
						{
							OFFSET 0.000000 0.000000 0.000000
						}
					}
				}
			}
		}
	}
	JOINT RHipJoint
	{
		OFFSET 0.000000 0.000000 0.000000
		CHANNELS 3 Zrotation Yrotation Xrotation
		JOINT RightUpLeg
		{
			OFFSET -1.800000 -1.400000 0.085000
			CHANNELS 3 Zrotation Yrotation Xrotation
			JOINT RightLeg
			{
				OFFSET -2.215000 -6.000000 0.000000
				CHANNELS 3 Zrotation Yrotation Xrotation
				JOINT RightFoot
				{
					OFFSET -2.500000 -6.900000 0.000000
					CHANNELS 3 Zrotation Yrotation Xrotation
					JOINT RightToeBase
					{
						OFFSET -0.200000 -0.500000 1.950000
						CHANNELS 3 Zrotation Yrotation Xrotation
						End Site
						{
							OFFSET 0.000000 0.000000 0.000000
						}
					}
				}
			}
		}
	}
	JOINT LowerBack
	{
		OFFSET 0.000000 0.000000 0.000000
		CHANNELS 3 Zrotation Yrotation Xrotation
		JOINT Spine
		{
			OFFSET -0.087000 1.940000 -0.288900
			CHANNELS 3 Zrotation Yrotation Xrotation
			JOINT Spine1
			{
				OFFSET 0.000000 1.950000 0.060000
				CHANNELS 3 Zrotation Yrotation Xrotation
				JOINT Neck
				{
					OFFSET 0.000000 0.000000 0.000000
					CHANNELS 3 Zrotation Yrotation Xrotation
					JOINT Neck1
					{
						OFFSET 0.000000 1.600000 0.340000
						CHANNELS 3 Zrotation Yrotation Xrotation
						JOINT Head
						{
							OFFSET 0.000000 1.667000 -0.240000
							CHANNELS 3 Zrotation Yrotation Xrotation
							End Site
							{
								OFFSET 0.000000 0.000000 0.000000
							}
						}
					}
				}
				JOINT LeftShoulder
				{
					OFFSET 0.000000 0.000000 0.000000
					CHANNELS 3 Zrotation Yrotation Xrotation
					JOINT LeftArm
					{
						OFFSET 2.700000 1.550000 -0.730000
						CHANNELS 3 Zrotation Yrotation Xrotation
						JOINT LeftForeArm
						{
							OFFSET 5.450000 0.000000 0.000000
							CHANNELS 3 Zrotation Yrotation Xrotation
							JOINT LeftHand
							{
								OFFSET 3.450000 0.000000 0.000000
								CHANNELS 3 Zrotation Yrotation Xrotation
								JOINT LeftHandIndex1
								{
									OFFSET 0.750000 0.000000 0.000000
									CHANNELS 3 Zrotation Yrotation Xrotation
									End Site
									{
										OFFSET 0.000000 0.000000 0.000000
									}
								}
							}
						}
					}
				}
				JOINT RightShoulder
				{
					OFFSET 0.000000 0.000000 0.000000
					CHANNELS 3 Zrotation Yrotation Xrotation
					JOINT RightArm
					{
						OFFSET -2.700000 1.550000 -0.730000
						CHANNELS 3 Zrotation Yrotation Xrotation
						JOINT RightForeArm
						{
							OFFSET -5.450000 0.000000 0.000000
							CHANNELS 3 Zrotation Yrotation Xrotation
							JOINT RightHand
							{
								OFFSET -3.450000 0.000000 0.000000
								CHANNELS 3 Zrotation Yrotation Xrotation
								JOINT RightHandIndex1
								{
									OFFSET -0.750000 0.000000 0.000000
									CHANNELS 3 Zrotation Yrotation Xrotation
									End Site
									{
										OFFSET 0.000000 0.000000 0.000000
									}
								}
							}
						}
					}
				}
			}
		}
	}
}
MOTION
Frames: 4
Frame Time: 0.016667
2.709720 17.457690 -8.701320 -1.100433 -26.616942 5.110743 -15.062594 13.434676 2.610232 13.461309 -1.036232 -10.534755 -11.122991 7.917407 14.382121 -0.314828 5.177930 2.654968 0.263550 0.236840 0.289920 18.503382 -9.511964 3.557013 -6.759979 7.764208 -36.984579 0.771474 -8.591693 51.835623 -0.792604 -7.298888 1.675610 0.290620 0.042870 0.055610 -4.108515 -3.632173 -7.370650 11.786234 -15.545820 17.732607 -15.223618 -13.736837 10.801676 3.050563 -12.645174 -11.617350 -30.766029 24.813575 26.597230 -15.058880 16.271180 -10.519150 -20.962141 -11.973278 6.732176 -39.425820 -1.331359 1.158407 -2.246048 4.723545 -0.475606 -3.990976 2.801707 0.228770 0.148990 0.022290 -0.010190 15.515098 17.114507 5.514579 42.389986 24.367783 6.157021 179.407846 61.652631 169.886763 1.789049 -1.786785 -0.190760 0.233750 0.043180 -0.216330 
2.563280 17.560720 -8.689220 -0.496442 -26.775348 6.154149 -15.036684 13.635129 2.755728 12.659541 -0.900134 -10.513534 -10.062549 6.913581 11.254853 -0.360777 4.814108 2.836140 0.223710 0.197560 0.221720 18.457933 -9.998568 2.951340 -6.527919 5.604215 -31.470931 1.337531 -6.881116 41.254471 -0.374986 -5.539562 2.288435 0.294110 0.145680 0.064060 -4.011735 -3.473163 -6.963984 11.893818 -14.305072 13.669099 -14.440951 -12.888905 10.790750 2.393339 -12.999696 -10.814164 -31.116288 25.004028 25.806950 -13.374250 16.516560 -7.647780 -18.768222 -8.488491 5.732571 -44.836625 -0.713345 0.727230 -2.196814 4.881621 -0.387395 -4.101990 2.820538 0.162670 0.224420 -0.052950 0.016060 14.477776 14.495244 5.036578 45.853954 24.622193 8.009406 173.349369 63.114515 161.314348 1.743928 -1.782019 -0.215890 0.240940 0.063850 -0.189190 
2.448030 17.644120 -8.691330 0.170631 -26.031085 7.083111 -15.037851 13.705075 2.840479 11.532440 -0.885626 -10.569373 -8.369278 5.757339 7.802351 -0.388421 4.394193 3.041738 0.181230 0.163900 0.161710 18.423628 -10.302385 2.563571 -7.212150 3.943922 -27.516253 2.473005 -6.066793 33.008211 -0.115959 -4.424125 2.716053 0.290110 0.236390 0.066860 -3.920193 -3.292665 -6.679309 11.783442 -13.122969 10.277747 -13.411620 -12.050859 10.947082 1.909629 -13.009932 -10.085394 -30.183406 24.733569 25.860096 -12.059440 16.759670 -5.149730 -15.974101 -5.186899 4.689506 -49.517511 -0.774883 0.426874 -2.872404 5.339570 -0.365639 -4.211651 2.818652 0.089890 0.294320 -0.117870 0.040940 12.498862 11.855028 4.647923 48.816334 25.179806 9.719912 169.717886 64.345284 156.590119 1.710581 -1.797259 -0.231970 0.247850 0.075650 -0.159670 
2.348600 17.725260 -8.718420 1.160161 -25.646245 7.905102 -15.066166 13.680684 2.907624 10.029098 -1.015681 -11.057408 -7.095660 4.912764 5.299194 -0.408457 4.059133 3.189722 0.172900 0.174620 0.116100 18.388106 -10.433161 2.365047 -8.228063 2.885481 -24.744555 3.921273 -5.626319 26.587412 0.024005 -3.765848 2.982857 0.305970 0.292800 0.064380 -3.817936 -3.164745 -6.522669 10.878490 -11.884856 7.847001 -12.128150 -11.051772 10.790650 1.337956 -12.954217 -9.657706 -29.392463 24.936734 25.695649 -10.180180 17.024430 -3.646830 -12.962785 -2.593672 4.173669 -53.629489 -0.407781 0.122674 -3.560213 5.883880 -0.371026 -4.277419 2.825903 0.039850 0.333600 -0.159550 0.064560 10.576450 9.914856 4.193279 51.081555 25.653548 10.296781 160.071135 66.042562 143.151330 1.704490 -1.681382 -0.234680 0.250090 0.076190 -0.134930 
